<mxfile host="app.diagrams.net" agent="Mozilla/5.0 (Macintosh; Intel Mac OS X 10_15_7) AppleWebKit/605.1.15 (KHTML, like Gecko) Version/26.0.1 Safari/605.1.15" version="28.2.8">
  <diagram name="Страница — 1" id="XzlCyYqYNUeCB5ocVOlL">
    <mxGraphModel dx="1454" dy="986" grid="1" gridSize="10" guides="1" tooltips="1" connect="1" arrows="1" fold="1" page="1" pageScale="1" pageWidth="827" pageHeight="1169" math="0" shadow="0">
      <root>
        <mxCell id="0" />
        <mxCell id="1" parent="0" />
        <mxCell id="oPFI6hasgZqj9vDYpvf5-26" style="edgeStyle=orthogonalEdgeStyle;rounded=0;orthogonalLoop=1;jettySize=auto;html=1;dashed=1;endArrow=none;endFill=0;exitX=0.5;exitY=1;exitDx=0;exitDy=0;" edge="1" parent="1" source="HY_ZpfJ6olYYfv_nqR7K-27">
          <mxGeometry relative="1" as="geometry">
            <mxPoint x="680" y="1000" as="targetPoint" />
            <mxPoint x="679.5" y="110" as="sourcePoint" />
          </mxGeometry>
        </mxCell>
        <mxCell id="oPFI6hasgZqj9vDYpvf5-25" style="edgeStyle=orthogonalEdgeStyle;rounded=0;orthogonalLoop=1;jettySize=auto;html=1;dashed=1;endArrow=none;endFill=0;exitX=0.5;exitY=1;exitDx=0;exitDy=0;" edge="1" parent="1" source="HY_ZpfJ6olYYfv_nqR7K-37">
          <mxGeometry relative="1" as="geometry">
            <mxPoint x="400" y="1000" as="targetPoint" />
            <mxPoint x="420" y="90" as="sourcePoint" />
            <Array as="points">
              <mxPoint x="400" y="1000" />
              <mxPoint x="400" y="1000" />
            </Array>
          </mxGeometry>
        </mxCell>
        <mxCell id="oPFI6hasgZqj9vDYpvf5-24" style="edgeStyle=orthogonalEdgeStyle;rounded=0;orthogonalLoop=1;jettySize=auto;html=1;dashed=1;endArrow=none;endFill=0;" edge="1" parent="1" source="HY_ZpfJ6olYYfv_nqR7K-25">
          <mxGeometry relative="1" as="geometry">
            <mxPoint x="120" y="1001" as="targetPoint" />
          </mxGeometry>
        </mxCell>
        <mxCell id="HY_ZpfJ6olYYfv_nqR7K-25" value="Хост" style="html=1;whiteSpace=wrap;" parent="1" vertex="1">
          <mxGeometry x="40" y="40" width="160" height="40" as="geometry" />
        </mxCell>
        <mxCell id="HY_ZpfJ6olYYfv_nqR7K-27" value="Гость" style="html=1;whiteSpace=wrap;" parent="1" vertex="1">
          <mxGeometry x="600" y="40" width="160" height="40" as="geometry" />
        </mxCell>
        <mxCell id="HY_ZpfJ6olYYfv_nqR7K-31" value="" style="html=1;points=[[0,0,0,0,5],[0,1,0,0,-5],[1,0,0,0,5],[1,1,0,0,-5]];perimeter=orthogonalPerimeter;outlineConnect=0;targetShapes=umlLifeline;portConstraint=eastwest;newEdgeStyle={&quot;curved&quot;:0,&quot;rounded&quot;:0};" parent="1" vertex="1">
          <mxGeometry x="115" y="120" width="10" height="80" as="geometry" />
        </mxCell>
        <mxCell id="HY_ZpfJ6olYYfv_nqR7K-37" value="Сервер" style="html=1;whiteSpace=wrap;" parent="1" vertex="1">
          <mxGeometry x="320" y="40" width="160" height="40" as="geometry" />
        </mxCell>
        <mxCell id="HY_ZpfJ6olYYfv_nqR7K-38" value="" style="html=1;points=[[0,0,0,0,5],[0,1,0,0,-5],[1,0,0,0,5],[1,1,0,0,-5]];perimeter=orthogonalPerimeter;outlineConnect=0;targetShapes=umlLifeline;portConstraint=eastwest;newEdgeStyle={&quot;curved&quot;:0,&quot;rounded&quot;:0};" parent="1" vertex="1">
          <mxGeometry x="395" y="120" width="10" height="80" as="geometry" />
        </mxCell>
        <mxCell id="HY_ZpfJ6olYYfv_nqR7K-39" style="edgeStyle=orthogonalEdgeStyle;rounded=0;orthogonalLoop=1;jettySize=auto;html=1;curved=0;exitX=1;exitY=0;exitDx=0;exitDy=5;exitPerimeter=0;entryX=0;entryY=0;entryDx=0;entryDy=5;entryPerimeter=0;" parent="1" source="HY_ZpfJ6olYYfv_nqR7K-31" target="HY_ZpfJ6olYYfv_nqR7K-38" edge="1">
          <mxGeometry relative="1" as="geometry" />
        </mxCell>
        <mxCell id="HY_ZpfJ6olYYfv_nqR7K-40" value="Создаёт &quot;ивент&quot;" style="edgeLabel;html=1;align=center;verticalAlign=middle;resizable=0;points=[];" parent="HY_ZpfJ6olYYfv_nqR7K-39" vertex="1" connectable="0">
          <mxGeometry x="-0.0593" relative="1" as="geometry">
            <mxPoint y="-1" as="offset" />
          </mxGeometry>
        </mxCell>
        <mxCell id="HY_ZpfJ6olYYfv_nqR7K-41" style="edgeStyle=orthogonalEdgeStyle;rounded=0;orthogonalLoop=1;jettySize=auto;html=1;curved=0;exitX=0;exitY=1;exitDx=0;exitDy=-5;exitPerimeter=0;entryX=1;entryY=1;entryDx=0;entryDy=-5;entryPerimeter=0;dashed=1;" parent="1" source="HY_ZpfJ6olYYfv_nqR7K-38" target="HY_ZpfJ6olYYfv_nqR7K-31" edge="1">
          <mxGeometry relative="1" as="geometry" />
        </mxCell>
        <mxCell id="HY_ZpfJ6olYYfv_nqR7K-42" value="Выдаёт код для подключения" style="edgeLabel;html=1;align=center;verticalAlign=middle;resizable=0;points=[];" parent="HY_ZpfJ6olYYfv_nqR7K-41" vertex="1" connectable="0">
          <mxGeometry x="0.0469" y="1" relative="1" as="geometry">
            <mxPoint y="-2" as="offset" />
          </mxGeometry>
        </mxCell>
        <mxCell id="HY_ZpfJ6olYYfv_nqR7K-45" style="edgeStyle=orthogonalEdgeStyle;rounded=0;orthogonalLoop=1;jettySize=auto;html=1;curved=0;" parent="1" edge="1">
          <mxGeometry relative="1" as="geometry">
            <mxPoint x="90" y="280" as="sourcePoint" />
            <mxPoint x="680" y="280" as="targetPoint" />
          </mxGeometry>
        </mxCell>
        <mxCell id="HY_ZpfJ6olYYfv_nqR7K-46" value="Вживую показывает полученный с сервера код в аудиторию" style="edgeLabel;html=1;align=center;verticalAlign=middle;resizable=0;points=[];" parent="HY_ZpfJ6olYYfv_nqR7K-45" vertex="1" connectable="0">
          <mxGeometry x="-0.0593" relative="1" as="geometry">
            <mxPoint x="28" y="-1" as="offset" />
          </mxGeometry>
        </mxCell>
        <mxCell id="HY_ZpfJ6olYYfv_nqR7K-47" value="" style="html=1;points=[[0,0,0,0,5],[0,1,0,0,-5],[1,0,0,0,5],[1,1,0,0,-5]];perimeter=orthogonalPerimeter;outlineConnect=0;targetShapes=umlLifeline;portConstraint=eastwest;newEdgeStyle={&quot;curved&quot;:0,&quot;rounded&quot;:0};" parent="1" vertex="1">
          <mxGeometry x="675" y="360" width="10" height="160" as="geometry" />
        </mxCell>
        <mxCell id="HY_ZpfJ6olYYfv_nqR7K-49" value="" style="html=1;points=[[0,0,0,0,5],[0,1,0,0,-5],[1,0,0,0,5],[1,1,0,0,-5]];perimeter=orthogonalPerimeter;outlineConnect=0;targetShapes=umlLifeline;portConstraint=eastwest;newEdgeStyle={&quot;curved&quot;:0,&quot;rounded&quot;:0};" parent="1" vertex="1">
          <mxGeometry x="395" y="360" width="10" height="80" as="geometry" />
        </mxCell>
        <mxCell id="HY_ZpfJ6olYYfv_nqR7K-50" style="edgeStyle=orthogonalEdgeStyle;rounded=0;orthogonalLoop=1;jettySize=auto;html=1;curved=0;exitX=0;exitY=0;exitDx=0;exitDy=5;exitPerimeter=0;entryX=1;entryY=0;entryDx=0;entryDy=5;entryPerimeter=0;" parent="1" source="HY_ZpfJ6olYYfv_nqR7K-47" target="HY_ZpfJ6olYYfv_nqR7K-49" edge="1">
          <mxGeometry relative="1" as="geometry" />
        </mxCell>
        <mxCell id="HY_ZpfJ6olYYfv_nqR7K-54" value="Отправляет код" style="edgeLabel;html=1;align=center;verticalAlign=middle;resizable=0;points=[];" parent="HY_ZpfJ6olYYfv_nqR7K-50" vertex="1" connectable="0">
          <mxGeometry x="0.0557" y="-1" relative="1" as="geometry">
            <mxPoint x="8" as="offset" />
          </mxGeometry>
        </mxCell>
        <mxCell id="HY_ZpfJ6olYYfv_nqR7K-65" value="" style="html=1;points=[[0,0,0,0,5],[0,1,0,0,-5],[1,0,0,0,5],[1,1,0,0,-5]];perimeter=orthogonalPerimeter;outlineConnect=0;targetShapes=umlLifeline;portConstraint=eastwest;newEdgeStyle={&quot;curved&quot;:0,&quot;rounded&quot;:0};" parent="1" vertex="1">
          <mxGeometry x="675" y="560" width="10" height="160" as="geometry" />
        </mxCell>
        <mxCell id="HY_ZpfJ6olYYfv_nqR7K-66" value="Включает BLE-маяк&lt;div&gt;с полученным UUID&lt;/div&gt;" style="html=1;align=left;spacingLeft=2;endArrow=block;rounded=0;edgeStyle=orthogonalEdgeStyle;curved=0;rounded=0;exitX=1;exitY=1;exitDx=0;exitDy=-5;exitPerimeter=0;" parent="1" source="HY_ZpfJ6olYYfv_nqR7K-47" target="HY_ZpfJ6olYYfv_nqR7K-65" edge="1">
          <mxGeometry x="0.0023" relative="1" as="geometry">
            <mxPoint x="680" y="460" as="sourcePoint" />
            <Array as="points">
              <mxPoint x="710" y="515" />
              <mxPoint x="710" y="570" />
            </Array>
            <mxPoint as="offset" />
          </mxGeometry>
        </mxCell>
        <mxCell id="HY_ZpfJ6olYYfv_nqR7K-69" value="" style="html=1;points=[[0,0,0,0,5],[0,1,0,0,-5],[1,0,0,0,5],[1,1,0,0,-5]];perimeter=orthogonalPerimeter;outlineConnect=0;targetShapes=umlLifeline;portConstraint=eastwest;newEdgeStyle={&quot;curved&quot;:0,&quot;rounded&quot;:0};" parent="1" vertex="1">
          <mxGeometry x="115" y="360" width="10" height="360" as="geometry" />
        </mxCell>
        <mxCell id="HY_ZpfJ6olYYfv_nqR7K-70" style="edgeStyle=orthogonalEdgeStyle;rounded=0;orthogonalLoop=1;jettySize=auto;html=1;curved=0;exitX=0;exitY=1;exitDx=0;exitDy=-5;exitPerimeter=0;" parent="1" source="HY_ZpfJ6olYYfv_nqR7K-31" target="HY_ZpfJ6olYYfv_nqR7K-69" edge="1">
          <mxGeometry relative="1" as="geometry">
            <mxPoint x="60" y="220" as="sourcePoint" />
            <mxPoint x="100" y="370" as="targetPoint" />
            <Array as="points">
              <mxPoint x="90" y="195" />
              <mxPoint x="90" y="370" />
            </Array>
          </mxGeometry>
        </mxCell>
        <mxCell id="oPFI6hasgZqj9vDYpvf5-3" value="Включает&lt;div&gt;BLE-сканер&amp;nbsp;&lt;/div&gt;" style="edgeLabel;html=1;align=center;verticalAlign=middle;resizable=0;points=[];" vertex="1" connectable="0" parent="1">
          <mxGeometry x="50" y="280" as="geometry" />
        </mxCell>
        <mxCell id="oPFI6hasgZqj9vDYpvf5-5" style="edgeStyle=orthogonalEdgeStyle;rounded=0;orthogonalLoop=1;jettySize=auto;html=1;curved=0;exitX=1;exitY=1;exitDx=0;exitDy=-5;exitPerimeter=0;entryX=0;entryY=1;entryDx=0;entryDy=-5;entryPerimeter=0;" edge="1" parent="1" target="HY_ZpfJ6olYYfv_nqR7K-65">
          <mxGeometry relative="1" as="geometry">
            <mxPoint x="125" y="715" as="sourcePoint" />
            <mxPoint x="210" y="690" as="targetPoint" />
          </mxGeometry>
        </mxCell>
        <mxCell id="oPFI6hasgZqj9vDYpvf5-6" value="Обнаруживает BLE UUID, складывает в список" style="edgeLabel;html=1;align=center;verticalAlign=middle;resizable=0;points=[];" vertex="1" connectable="0" parent="oPFI6hasgZqj9vDYpvf5-5">
          <mxGeometry x="0.0557" y="-1" relative="1" as="geometry">
            <mxPoint x="-20" as="offset" />
          </mxGeometry>
        </mxCell>
        <mxCell id="oPFI6hasgZqj9vDYpvf5-7" value="" style="html=1;points=[[0,0,0,0,5],[0,1,0,0,-5],[1,0,0,0,5],[1,1,0,0,-5]];perimeter=orthogonalPerimeter;outlineConnect=0;targetShapes=umlLifeline;portConstraint=eastwest;newEdgeStyle={&quot;curved&quot;:0,&quot;rounded&quot;:0};" vertex="1" parent="1">
          <mxGeometry x="115" y="800" width="10" height="160" as="geometry" />
        </mxCell>
        <mxCell id="oPFI6hasgZqj9vDYpvf5-8" value="" style="html=1;points=[[0,0,0,0,5],[0,1,0,0,-5],[1,0,0,0,5],[1,1,0,0,-5]];perimeter=orthogonalPerimeter;outlineConnect=0;targetShapes=umlLifeline;portConstraint=eastwest;newEdgeStyle={&quot;curved&quot;:0,&quot;rounded&quot;:0};" vertex="1" parent="1">
          <mxGeometry x="395" y="800" width="10" height="80" as="geometry" />
        </mxCell>
        <mxCell id="oPFI6hasgZqj9vDYpvf5-9" style="edgeStyle=orthogonalEdgeStyle;rounded=0;orthogonalLoop=1;jettySize=auto;html=1;curved=0;exitX=1;exitY=0;exitDx=0;exitDy=5;exitPerimeter=0;entryX=0;entryY=0;entryDx=0;entryDy=5;entryPerimeter=0;" edge="1" parent="1" source="oPFI6hasgZqj9vDYpvf5-7" target="oPFI6hasgZqj9vDYpvf5-8">
          <mxGeometry relative="1" as="geometry">
            <mxPoint x="120" y="750" as="sourcePoint" />
            <mxPoint x="670" y="750" as="targetPoint" />
            <Array as="points">
              <mxPoint x="350" y="805" />
              <mxPoint x="350" y="805" />
            </Array>
          </mxGeometry>
        </mxCell>
        <mxCell id="oPFI6hasgZqj9vDYpvf5-10" value="Отправляет все обнаруженные UUID" style="edgeLabel;html=1;align=center;verticalAlign=middle;resizable=0;points=[];" vertex="1" connectable="0" parent="oPFI6hasgZqj9vDYpvf5-9">
          <mxGeometry x="0.0557" y="-1" relative="1" as="geometry">
            <mxPoint x="-7" as="offset" />
          </mxGeometry>
        </mxCell>
        <mxCell id="oPFI6hasgZqj9vDYpvf5-13" value="" style="html=1;points=[[0,0,0,0,5],[0,1,0,0,-5],[1,0,0,0,5],[1,1,0,0,-5]];perimeter=orthogonalPerimeter;outlineConnect=0;targetShapes=umlLifeline;portConstraint=eastwest;newEdgeStyle={&quot;curved&quot;:0,&quot;rounded&quot;:0};" vertex="1" parent="1">
          <mxGeometry x="395" y="920" width="10" height="40" as="geometry" />
        </mxCell>
        <mxCell id="oPFI6hasgZqj9vDYpvf5-14" value="Сверяет все UUID в БД и проставляет&lt;div&gt;присутствие подтвержденным гостям&lt;/div&gt;" style="html=1;align=left;spacingLeft=2;endArrow=block;rounded=0;edgeStyle=orthogonalEdgeStyle;curved=0;rounded=0;exitX=1;exitY=1;exitDx=0;exitDy=-5;exitPerimeter=0;" edge="1" parent="1" source="oPFI6hasgZqj9vDYpvf5-8" target="oPFI6hasgZqj9vDYpvf5-13">
          <mxGeometry x="0.0068" relative="1" as="geometry">
            <mxPoint x="440" y="860" as="sourcePoint" />
            <Array as="points">
              <mxPoint x="430" y="875" />
              <mxPoint x="430" y="930" />
            </Array>
            <mxPoint as="offset" />
            <mxPoint x="440" y="955" as="targetPoint" />
          </mxGeometry>
        </mxCell>
        <mxCell id="oPFI6hasgZqj9vDYpvf5-15" style="edgeStyle=orthogonalEdgeStyle;rounded=0;orthogonalLoop=1;jettySize=auto;html=1;curved=0;exitX=0;exitY=1;exitDx=0;exitDy=-5;exitPerimeter=0;entryX=1;entryY=1;entryDx=0;entryDy=-5;entryPerimeter=0;dashed=1;" edge="1" parent="1" source="oPFI6hasgZqj9vDYpvf5-13" target="oPFI6hasgZqj9vDYpvf5-7">
          <mxGeometry relative="1" as="geometry">
            <mxPoint x="290" y="1080" as="sourcePoint" />
            <mxPoint x="560" y="1080" as="targetPoint" />
            <Array as="points">
              <mxPoint x="260" y="955" />
              <mxPoint x="260" y="955" />
            </Array>
          </mxGeometry>
        </mxCell>
        <mxCell id="oPFI6hasgZqj9vDYpvf5-16" value="Возвращает подтверждённых гостей" style="edgeLabel;html=1;align=center;verticalAlign=middle;resizable=0;points=[];" vertex="1" connectable="0" parent="oPFI6hasgZqj9vDYpvf5-15">
          <mxGeometry x="0.0557" y="-1" relative="1" as="geometry">
            <mxPoint x="7" y="1" as="offset" />
          </mxGeometry>
        </mxCell>
        <mxCell id="oPFI6hasgZqj9vDYpvf5-17" style="edgeStyle=orthogonalEdgeStyle;rounded=0;orthogonalLoop=1;jettySize=auto;html=1;curved=0;exitX=1;exitY=1;exitDx=0;exitDy=-5;exitPerimeter=0;dashed=1;entryX=0;entryY=1;entryDx=0;entryDy=-5;entryPerimeter=0;" edge="1" parent="1" source="oPFI6hasgZqj9vDYpvf5-20" target="HY_ZpfJ6olYYfv_nqR7K-47">
          <mxGeometry relative="1" as="geometry">
            <mxPoint x="414" y="510" as="sourcePoint" />
            <mxPoint x="670" y="520" as="targetPoint" />
          </mxGeometry>
        </mxCell>
        <mxCell id="oPFI6hasgZqj9vDYpvf5-20" value="" style="html=1;points=[[0,0,0,0,5],[0,1,0,0,-5],[1,0,0,0,5],[1,1,0,0,-5]];perimeter=orthogonalPerimeter;outlineConnect=0;targetShapes=umlLifeline;portConstraint=eastwest;newEdgeStyle={&quot;curved&quot;:0,&quot;rounded&quot;:0};" vertex="1" parent="1">
          <mxGeometry x="395" y="480" width="10" height="40" as="geometry" />
        </mxCell>
        <mxCell id="oPFI6hasgZqj9vDYpvf5-21" value="Создаёт UUID&lt;div&gt;и записывает в БД&lt;/div&gt;" style="html=1;align=left;spacingLeft=2;endArrow=block;rounded=0;edgeStyle=orthogonalEdgeStyle;curved=0;rounded=0;exitX=1;exitY=1;exitDx=0;exitDy=-5;exitPerimeter=0;" edge="1" parent="1" target="oPFI6hasgZqj9vDYpvf5-20" source="HY_ZpfJ6olYYfv_nqR7K-49">
          <mxGeometry x="0.0068" relative="1" as="geometry">
            <mxPoint x="410" y="480" as="sourcePoint" />
            <Array as="points">
              <mxPoint x="435" y="435" />
              <mxPoint x="435" y="490" />
            </Array>
            <mxPoint as="offset" />
            <mxPoint x="445" y="560" as="targetPoint" />
          </mxGeometry>
        </mxCell>
        <mxCell id="oPFI6hasgZqj9vDYpvf5-23" value="Сообщает название ивента,&lt;div&gt;выдаёт UUID-идентификатор для BLE&lt;/div&gt;" style="edgeLabel;html=1;align=center;verticalAlign=middle;resizable=0;points=[];" vertex="1" connectable="0" parent="1">
          <mxGeometry x="540" y="510" as="geometry" />
        </mxCell>
      </root>
    </mxGraphModel>
  </diagram>
</mxfile>
